<?xml version="1.0" standalone="no"?>
<!DOCTYPE svg PUBLIC "-//W3C//DTD SVG 20010904//EN"
 "http://www.w3.org/TR/2001/REC-SVG-20010904/DTD/svg10.dtd">
<svg version="1.0" xmlns="http://www.w3.org/2000/svg"
 width="383.000000pt" height="383.000000pt" viewBox="0 0 383.000000 383.000000"
 preserveAspectRatio="xMidYMid meet">
<metadata>
Created by potrace 1.14, written by Peter Selinger 2001-2017
</metadata>
<g transform="translate(0.000000,383.000000) scale(0.100000,-0.100000)"
fill="#000000" stroke="none">
<path d="M881 2934 c-340 -83 -613 -343 -732 -697 -112 -335 -49 -748 155
-1019 176 -235 399 -371 679 -414 20 -3 37 -3 37 -1 0 2 -17 16 -37 30 -87 58
-175 161 -226 263 -24 48 -63 157 -71 199 -12 65 -17 110 -21 194 -9 186 -61
288 -188 368 l-40 25 33 16 c18 9 55 38 81 64 77 77 107 157 115 310 9 172 35
282 97 404 46 91 141 198 229 257 l42 28 -33 -3 c-18 -1 -72 -12 -120 -24z"/>
<path d="M1321 2926 c118 -90 272 -327 343 -523 141 -395 114 -864 -70 -1223
-40 -79 -69 -130 -86 -155 -37 -51 -112 -139 -151 -177 -56 -53 -49 -55 68
-18 336 107 603 407 696 781 20 81 23 118 23 274 -1 164 -3 189 -28 280 -88
323 -285 572 -563 710 -84 42 -215 85 -257 85 -14 0 -7 -9 25 -34z"/>
<path d="M2895 2773 c-16 -59 -30 -112 -32 -118 -1 -5 -17 -65 -36 -131 l-34
-122 19 -48 c10 -27 23 -58 28 -69 5 -11 23 -56 40 -100 17 -44 35 -89 40
-100 5 -11 71 -173 146 -360 179 -449 243 -606 254 -630 5 -11 28 -67 50 -125
56 -142 69 -170 83 -170 77 -2 319 -1 322 2 2 2 -218 548 -293 728 -6 14 -83
203 -172 420 -88 217 -164 404 -169 415 -5 11 -18 41 -30 67 -12 26 -21 54
-21 61 0 7 -4 17 -8 22 -5 6 -33 71 -62 145 -29 74 -57 139 -62 145 -4 5 -8
16 -8 25 0 9 -6 24 -13 33 -11 15 -16 3 -42 -90z"/>
<path d="M2547 1520 c-171 -45 -275 -168 -333 -395 -40 -157 -96 -252 -180
-301 -16 -10 -10 -13 39 -19 145 -19 270 20 361 113 65 66 90 115 142 271 52
157 104 261 157 314 l38 38 -78 -2 c-44 -1 -109 -10 -146 -19z"/>
</g>
</svg>
